# xmcd CD database file
#
# Track frame offsets:
#	150
#	18087
#	39888
#	62140
#	81266
#	98003
#	118018
#	137584
#	162486
#	181276
#	199777
#	216065
#
# Disc length: 3153 seconds
#
# Revision: 4
# Processed by: cddbd v1.5.1PL2 Copyright (c) Steve Scherf et al.
# Submitted via: CDex 1.51
#
DISCID=9a0c4f0c
DTITLE=モーニング娘。 - レインボー7
DYEAR=2006
DGENRE=Pop
TTITLE0=HOW DO YOU LIKE JAPAN?〜日本はどんな感じでっか?〜
TTITLE1=THE マンパワー!!!
TTITLE2=青空がいつまでも続くような未来であれ!
TTITLE3=大阪　恋の歌
TTITLE4=INDIGO BLUE LOVE
TTITLE5=レインボーピンク
TTITLE6=色っぽい　じれったい
TTITLE7=無色透明なままで
TTITLE8=パープルウインド
TTITLE9=さよなら SEE YOU AGAIN アディオス BYE BYE チャッチャ!
TTITLE10=直感2〜逃した魚は大きいぞ!〜 (全くその通リミックス)
TTITLE11=女子かしまし物語3
EXTD=YEAR: 2006
EXTT0=
EXTT1=
EXTT2=
EXTT3=
EXTT4=
EXTT5=
EXTT6=
EXTT7=
EXTT8=
EXTT9=
EXTT10=
EXTT11=
PLAYORDER=
